<svg width="345" height="147" viewBox="0 0 345 147" fill="none" xmlns="http://www.w3.org/2000/svg">
<g filter="url(#filter0_d_95_21)">
<path d="M297.567 7.29276C294.967 1.19654 287.918 -1.6379 281.822 0.961869L182.478 43.3275C176.382 45.9272 173.547 52.9767 176.147 59.0729C178.747 65.1692 185.796 68.0036 191.893 65.4038L280.198 27.7455L317.856 116.051C320.456 122.147 327.506 124.982 333.602 122.382C339.698 119.782 342.533 112.733 339.933 106.636L297.567 7.29276ZM4.01242 100.9C55.3162 130.438 99.7602 140.681 137.802 138.532C175.873 136.382 206.476 121.88 230.16 103.721C253.745 85.6379 270.548 63.8831 281.416 46.8169C286.87 38.2523 290.884 30.7821 293.553 25.409C294.888 22.7201 295.891 20.5493 296.571 19.0208C296.912 18.2563 297.172 17.6518 297.353 17.2228C297.444 17.0083 297.515 16.8376 297.566 16.7126C297.592 16.6501 297.613 16.599 297.629 16.5596C297.637 16.5399 297.644 16.5232 297.65 16.5093C297.652 16.5024 297.656 16.4942 297.657 16.4908C297.66 16.4834 297.663 16.4767 286.529 12C275.395 7.52343 275.397 7.51822 275.399 7.51374C275.399 7.51322 275.401 7.50945 275.401 7.50839C275.402 7.50628 275.402 7.50704 275.4 7.51067C275.397 7.51791 275.39 7.53658 275.378 7.56642C275.353 7.62612 275.31 7.73052 275.247 7.87773C275.123 8.1722 274.923 8.63765 274.646 9.25901C274.093 10.5022 273.233 12.3666 272.058 14.7321C269.706 19.4678 266.102 26.1832 261.172 33.9256C251.271 49.4732 236.239 68.8175 215.557 84.6752C194.973 100.457 168.875 112.739 136.449 114.57C103.994 116.403 64.1421 107.826 15.9876 80.1007L4.01242 100.9Z" fill="#169941"/>
</g>
<defs>
<filter id="filter0_d_95_21" x="0.0124512" y="-0.0030365" width="344.885" height="146.81" filterUnits="userSpaceOnUse" color-interpolation-filters="sRGB">
<feFlood flood-opacity="0" result="BackgroundImageFix"/>
<feColorMatrix in="SourceAlpha" type="matrix" values="0 0 0 0 0 0 0 0 0 0 0 0 0 0 0 0 0 0 127 0" result="hardAlpha"/>
<feOffset dy="4"/>
<feGaussianBlur stdDeviation="2"/>
<feComposite in2="hardAlpha" operator="out"/>
<feColorMatrix type="matrix" values="0 0 0 0 0 0 0 0 0 0 0 0 0 0 0 0 0 0 0.25 0"/>
<feBlend mode="normal" in2="BackgroundImageFix" result="effect1_dropShadow_95_21"/>
<feBlend mode="normal" in="SourceGraphic" in2="effect1_dropShadow_95_21" result="shape"/>
</filter>
</defs>
</svg>
