<svg width="66" height="66" viewBox="0 0 66 66" fill="none" xmlns="http://www.w3.org/2000/svg">
<path d="M66 66H0V0H66V66ZM4 62H62V4H4V62ZM48.4209 8.94824C48.6604 8.95484 48.8607 8.97618 49.0225 9.00195C49.1032 9.01483 49.1744 9.02911 49.2354 9.04297C49.2658 9.04988 49.2939 9.05681 49.3193 9.06348C49.3321 9.06681 49.3449 9.07003 49.3564 9.07324C49.362 9.07481 49.3677 9.0766 49.373 9.07812L49.3848 9.08105C49.3867 9.08163 49.389 9.08268 48.8203 11L49.3887 9.08203C49.9587 9.25109 50.4239 9.6655 50.6582 10.2119C51.727 12.7055 51.9239 15.4734 51.2412 18.0752C53.0207 20.3358 53.9993 23.1389 54 26.0391V26.04C54 31.9324 52.1974 35.8847 49.2021 38.4033C47.1886 40.0964 44.7828 41.0108 42.4111 41.5332C42.4421 41.6119 42.4752 41.6899 42.5039 41.7695C42.9104 42.8983 43.0773 44.0985 43 45.2949V53C42.9999 54.1045 42.1045 55 41 55C39.8955 55 39.0001 54.1045 39 53V45.2598C39 45.2075 39.0018 45.1546 39.0059 45.1025C39.0585 44.432 38.9681 43.7578 38.7402 43.125C38.5123 42.4922 38.1518 41.9146 37.6836 41.4316C37.1528 40.8838 36.9803 40.0812 37.2383 39.3633C37.4964 38.6454 38.1402 38.1363 38.8984 38.0518C41.926 37.7143 44.656 36.9999 46.6279 35.3418C48.444 33.8147 49.9064 31.235 49.9961 26.5049L50 26.04C49.9995 23.7612 49.123 21.5695 47.5518 19.9189C47.0241 19.3647 46.8585 18.5578 47.126 17.8408C47.7007 16.3007 47.79 14.6335 47.4033 13.0566C47.3992 13.0575 47.3948 13.0586 47.3906 13.0596C46.4151 13.2762 44.6881 13.8951 42.1133 15.6211C41.6324 15.9434 41.0353 16.0421 40.4766 15.8906C36.2353 14.7412 31.7647 14.7412 27.5234 15.8906C26.9647 16.0421 26.3676 15.9434 25.8867 15.6211C23.3119 13.8951 21.5849 13.2762 20.6094 13.0596C20.6049 13.0586 20.6001 13.0576 20.5957 13.0566C20.2091 14.6334 20.2993 16.3008 20.874 17.8408C21.1415 18.5578 20.9759 19.3647 20.4482 19.9189C18.8653 21.5817 17.9879 23.7931 18 26.0889V26.0996C18 31.0806 19.4934 33.7621 21.3721 35.3418C23.3511 37.0058 26.0894 37.738 29.127 38.1152C29.8791 38.2088 30.5134 38.7198 30.7656 39.4346C31.0178 40.1495 30.8444 40.9454 30.3174 41.4902C29.8547 41.9683 29.4973 42.539 29.2695 43.1641C29.0418 43.7891 28.9485 44.4555 28.9951 45.1191C28.9984 45.1658 29 45.213 29 45.2598V53C28.9999 54.1045 28.1045 55 27 55C25.8955 55 25.0001 54.1045 25 53V49.5068C23.3876 49.7536 21.9686 49.7129 20.7002 49.416C18.7708 48.9644 17.3929 47.9711 16.3359 46.9141C15.8187 46.3968 15.3724 45.8593 14.9873 45.377C14.5776 44.8637 14.2787 44.4684 13.9463 44.0781C13.2902 43.308 12.8829 43.0325 12.5146 42.9404C11.4432 42.6724 10.7917 41.5862 11.0596 40.5146C11.3276 39.4432 12.4138 38.7917 13.4854 39.0596C15.1169 39.4675 16.2099 40.5671 16.9912 41.4844C17.3774 41.9378 17.7819 42.4645 18.1143 42.8809C18.4713 43.3281 18.8064 43.7283 19.1641 44.0859C19.857 44.7788 20.6044 45.2856 21.6123 45.5215C22.4127 45.7087 23.4966 45.7515 25 45.4453V45.291C24.9314 44.1033 25.1042 42.9135 25.5117 41.7949C25.54 41.7174 25.5712 41.641 25.6016 41.5645C23.2267 41.0231 20.8147 40.0991 18.7979 38.4033C15.8066 35.888 14 31.9585 14 26.0996C13.987 23.1791 14.967 20.3538 16.7588 18.0771C16.0755 15.4748 16.2728 12.7061 17.3418 10.2119L17.4404 10.0137C17.6942 9.56604 18.1126 9.22997 18.6113 9.08203L19.1797 11C18.611 9.08268 18.6133 9.08163 18.6152 9.08105L18.627 9.07812C18.6323 9.0766 18.638 9.07481 18.6436 9.07324C18.6551 9.07003 18.6679 9.06681 18.6807 9.06348C18.7061 9.05681 18.7342 9.04988 18.7646 9.04297C18.8256 9.02911 18.8968 9.01483 18.9775 9.00195C19.1393 8.97618 19.3396 8.95484 19.5791 8.94824C20.0596 8.93502 20.6892 8.98072 21.4756 9.15527C22.9047 9.47253 24.8424 10.2156 27.3555 11.8057C31.7239 10.7683 36.2751 10.7685 40.6436 11.8057C43.1569 10.2153 45.0952 9.47256 46.5244 9.15527C47.3108 8.98072 47.9404 8.93502 48.4209 8.94824Z" fill="black"/>
</svg>
