<svg width="66" height="66" viewBox="0 0 66 66" fill="none" xmlns="http://www.w3.org/2000/svg">
<path fill-rule="evenodd" clip-rule="evenodd" d="M4 4H62V62H4V4ZM0 0H4H62H66V4V62V66H62H4H0V62V4V0ZM40.6426 11.8059C36.275 10.769 31.725 10.769 27.3574 11.8059C24.8436 10.2151 22.9053 9.47236 21.476 9.15504C20.6894 8.98042 20.0597 8.93534 19.579 8.94857C19.3393 8.95517 19.1389 8.97622 18.9771 9.00203C18.8963 9.01492 18.8254 9.02893 18.7644 9.04281C18.7339 9.04975 18.7059 9.05664 18.6804 9.06332C18.6676 9.06666 18.6555 9.06995 18.6439 9.07317L18.6271 9.07793L18.6191 9.08027L18.6152 9.08142C18.6132 9.082 18.6113 9.08257 19.18 11L18.6113 9.08257C18.0412 9.25165 17.576 9.6656 17.3417 10.2121C16.2727 12.7062 16.0746 15.4749 16.7578 18.0772C14.9652 20.3553 13.9857 23.1829 14 26.1052C14.0011 31.9613 15.8074 35.8887 18.7978 38.4033C20.814 40.0986 23.2247 41.0239 25.5989 41.5653C25.5687 41.6415 25.5395 41.7181 25.5115 41.7952C25.1 42.9246 24.926 44.1265 25 45.3257V45.4465C23.4965 45.7527 22.4124 45.7087 21.612 45.5214C20.6041 45.2855 19.8571 44.7787 19.1642 44.0858C18.8065 43.7281 18.4709 43.3284 18.1138 42.8811C18.021 42.7648 17.9226 42.64 17.8206 42.5105L17.8201 42.5099C17.5569 42.1758 17.2695 41.811 16.9912 41.4843C16.2098 40.567 15.1168 39.4677 13.4851 39.0597C12.4135 38.7918 11.3276 39.4433 11.0597 40.5149C10.7918 41.5865 11.4433 42.6724 12.5149 42.9403C12.8832 43.0324 13.2902 43.308 13.9463 44.0782C14.1726 44.3439 14.3835 44.6117 14.6244 44.9175L14.6248 44.9181C14.7377 45.0614 14.8571 45.213 14.9878 45.3767C15.3729 45.8591 15.8185 46.3969 16.3358 46.9142C17.3929 47.9713 18.7709 48.9645 20.7005 49.4161C21.9688 49.713 23.3877 49.7553 25 49.5086V53C25 54.1046 25.8954 55 27 55C28.1046 55 29 54.1046 29 53V47.0465C29.0004 47.0287 29.0006 47.011 29.0005 46.9932C29.0005 46.9805 29.0003 46.9678 29 46.9551V45.26C29 45.2132 28.9984 45.1664 28.9951 45.1197C28.9484 44.4559 29.042 43.7897 29.2698 43.1645C29.4976 42.5393 29.8545 41.969 30.3172 41.4908C30.8445 40.946 31.0183 40.1498 30.7661 39.4347C30.5139 38.7196 29.879 38.2087 29.1265 38.1153C26.0889 37.738 23.3512 37.0058 21.3722 35.3417C19.4935 33.762 18 31.0811 18 26.1L18 26.0894C17.9878 23.7934 18.8653 21.582 20.4485 19.9191C20.9763 19.3647 21.1414 18.5578 20.8738 17.8407C20.299 16.3007 20.2075 14.6334 20.594 13.0567L20.609 13.06C21.5845 13.2765 23.3113 13.8951 25.8864 15.6213C26.3673 15.9437 26.9643 16.0418 27.5232 15.8904C29.1733 15.4431 30.8581 15.1699 32.5507 15.0707L50 26.0404C49.9999 31.0676 48.5025 33.7654 46.6278 35.3417C44.6559 36.9999 41.9261 37.7148 38.8984 38.0523C38.1401 38.1368 37.4959 38.6456 37.2378 39.3637C36.9798 40.0818 37.1529 40.8842 37.684 41.4321C38.1523 41.9151 38.5124 42.4923 38.7403 43.1253C38.9683 43.7582 39.0589 44.4325 39.0062 45.1031C39.0021 45.1553 39 45.2077 39 45.26V53C39 54.1046 39.8954 55 41 55C42.1046 55 43 54.1046 43 53V45.3334C43.0835 44.1243 42.9146 42.9107 42.5037 41.7699C42.4751 41.6905 42.4454 41.6116 42.4145 41.5331C44.7852 41.0106 47.1895 40.0956 49.2022 38.4033C52.1974 35.8846 54 31.9325 54 26.04V26.0396C53.9995 23.1399 53.021 20.3378 51.2421 18.0772C51.9254 15.4749 51.7273 12.7062 50.6583 10.2121C50.424 9.6656 49.9588 9.25165 49.3887 9.08257L48.82 11C49.3887 9.08257 49.3868 9.082 49.3848 9.08142L49.3809 9.08027L49.3729 9.07793L49.3561 9.07317C49.3445 9.06995 49.3324 9.06666 49.3196 9.06332C49.2941 9.05664 49.2661 9.04975 49.2356 9.04281C49.1746 9.02893 49.1037 9.01492 49.0229 9.00203C48.8611 8.97622 48.6607 8.95517 48.421 8.94857C47.9403 8.93534 47.3106 8.98042 46.524 9.15504C45.0947 9.47236 43.1564 10.2151 40.6426 11.8059ZM47.406 13.0567L27.3574 11.8059L32.5507 15.0707C35.2086 14.9148 37.8856 15.1881 40.4768 15.8904C41.0357 16.0418 41.6327 15.9437 42.1136 15.6213C44.6887 13.8951 46.4155 13.2765 47.391 13.06L47.406 13.0567ZM47.5436 13.7457L47.406 13.0567C47.4618 13.2847 47.5077 13.5146 47.5436 13.7457ZM49.319 22.6317C48.9047 21.6356 48.3088 20.7145 47.5515 19.919C47.0237 19.3647 46.8586 18.5578 47.1262 17.8407C47.6178 16.5234 47.7559 15.1129 47.5436 13.7457L49.319 22.6317ZM49.319 22.6317C49.7643 23.7023 49.9997 24.8594 50 26.04L49.319 22.6317Z" fill="black"/>
</svg>
