<svg width="66" height="66" viewBox="0 0 66 66" fill="none" xmlns="http://www.w3.org/2000/svg">
<path fill-rule="evenodd" clip-rule="evenodd" d="M4 4H62V62H4V4ZM0 0H4H62H66V4V62V66H62H4H0V62V4V0ZM15 23C15 18.5817 18.5817 15 23 15H43C47.4183 15 51 18.5817 51 23V43C51 47.4183 47.4183 51 43 51H23C18.5817 51 15 47.4183 15 43V23ZM23 11C16.3726 11 11 16.3726 11 23V43C11 49.6274 16.3726 55 23 55H43C49.6274 55 55 49.6274 55 43V23C55 16.3726 49.6274 11 43 11H23ZM44 20C42.8954 20 42 20.8954 42 22C42 23.1046 42.8954 24 44 24H44.02C45.1246 24 46.02 23.1046 46.02 22C46.02 20.8954 45.1246 20 44.02 20H44ZM30.3231 27.5877C31.4433 27.0065 32.7183 26.7932 33.9666 26.9784C35.24 27.1672 36.4189 27.7606 37.3292 28.6708C38.2394 29.5811 38.8328 30.76 39.0216 32.0334C39.2067 33.2817 38.9935 34.5567 38.4123 35.6769C37.831 36.7971 36.9114 37.7055 35.7841 38.2729C34.6568 38.8403 33.3793 39.0378 32.1333 38.8373C30.8873 38.6368 29.7363 38.0485 28.8439 37.1561C27.9515 36.2637 27.3632 35.1127 27.1627 33.8667C26.9622 32.6207 27.1597 31.3432 27.7271 30.2159C28.2945 29.0886 29.2029 28.169 30.3231 27.5877ZM34.5534 23.0216C32.4728 22.7131 30.3478 23.0685 28.4808 24.0372C26.6138 25.006 25.0998 26.5388 24.1542 28.4176C23.2085 30.2964 22.8794 32.4255 23.2135 34.5022C23.5477 36.5788 24.5282 38.4972 26.0155 39.9845C27.5028 41.4718 29.4212 42.4523 31.4978 42.7865C33.5745 43.1206 35.7036 42.7915 37.5824 41.8458C39.4612 40.9002 40.994 39.3862 41.9628 37.5192C42.9315 35.6522 43.2869 33.5272 42.9784 31.4466C42.6637 29.3243 41.6747 27.3595 40.1576 25.8424C38.6405 24.3253 36.6757 23.3363 34.5534 23.0216Z" fill="black"/>
</svg>
