<svg width="66" height="66" viewBox="0 0 66 66" fill="none" xmlns="http://www.w3.org/2000/svg">
<path fill-rule="evenodd" clip-rule="evenodd" d="M4 4H62V62H4V4ZM0 0H4H62H66V4V62V66H62H4H0V62V4V0ZM15 17C15 15.8954 15.8954 15 17 15C18.1046 15 19 15.8954 19 17C19 18.1046 18.1046 19 17 19C15.8954 19 15 18.1046 15 17ZM17 11C13.6863 11 11 13.6863 11 17C11 20.3137 13.6863 23 17 23C20.3137 23 23 20.3137 23 17C23 13.6863 20.3137 11 17 11ZM33.9289 29.9289C35.8043 28.0536 38.3478 27 41 27C43.6522 27 46.1957 28.0536 48.0711 29.9289C49.9464 31.8043 51 34.3478 51 37V49H47V37C47 35.4087 46.3679 33.8826 45.2426 32.7574C44.1174 31.6321 42.5913 31 41 31C39.4087 31 37.8826 31.6321 36.7574 32.7574C35.6321 33.8826 35 35.4087 35 37V49H31V37C31 34.3478 32.0536 31.8043 33.9289 29.9289ZM41 23C37.287 23 33.726 24.475 31.1005 27.1005C28.475 29.726 27 33.287 27 37V51C27 52.1046 27.8954 53 29 53H37C38.1046 53 39 52.1046 39 51V37C39 36.4696 39.2107 35.9609 39.5858 35.5858C39.9609 35.2107 40.4696 35 41 35C41.5304 35 42.0391 35.2107 42.4142 35.5858C42.7893 35.9609 43 36.4696 43 37V51C43 52.1046 43.8954 53 45 53H53C54.1046 53 55 52.1046 55 51V37C55 33.287 53.525 29.726 50.8995 27.1005C48.274 24.475 44.713 23 41 23ZM13 25C11.8954 25 11 25.8954 11 27V51C11 52.1046 11.8954 53 13 53H21C22.1046 53 23 52.1046 23 51V27C23 25.8954 22.1046 25 21 25H13ZM15 49V29H19V49H15Z" fill="black"/>
</svg>
