<svg width="66" height="66" viewBox="0 0 66 66" fill="none" xmlns="http://www.w3.org/2000/svg">
<path fill-rule="evenodd" clip-rule="evenodd" d="M4 4H62V62H4V4ZM0 0H4H62H66V4V62V66H62H4H0V62V4V0ZM33 32.5587L15.2132 20.1079C15.5439 19.4538 16.2241 19 17 19H49C49.7759 19 50.4561 19.4538 50.7868 20.1079L33 32.5587ZM34.1469 36.6385L51 24.8413V45C51 46.0954 50.0954 47 49 47H17C15.9046 47 15 46.0954 15 45V24.8413L31.8531 36.6385C32.5417 37.1205 33.4583 37.1205 34.1469 36.6385ZM17 15C13.6954 15 11 17.6954 11 21V45C11 48.3046 13.6954 51 17 51H49C52.3046 51 55 48.3046 55 45V21C55 17.6954 52.3046 15 49 15H17Z" fill="black"/>
</svg>
